<svg width="256" height="256" viewBox="0 0 256 256" fill="none" xmlns="http://www.w3.org/2000/svg">
<rect width="256" height="256" fill="black"/>
<path fill-rule="evenodd" clip-rule="evenodd" d="M128 35L114.07 53.2534L96.1295 41.9615L91.1912 60.9764L70.3691 56.6058L89.3087 87.5224C99.6339 78.4618 113.168 72.9682 127.982 72.9638V72.964H128.019V72.9638C142.833 72.9683 156.367 78.4619 166.692 87.5224L185.632 56.6058L164.81 60.9764L159.871 41.9615L141.931 53.2534L128.019 35.0239V35.0237L128.015 35.0191L128 35ZM128.001 87.4863C103.621 87.4863 83.8556 107.236 83.8556 131.6C83.8556 142.144 87.5605 151.813 93.7172 159.389L76.829 210.998H179.172L162.284 159.389C168.441 151.813 172.146 142.144 172.146 131.6C172.146 107.236 152.38 87.4863 128.001 87.4863ZM151.354 131.601C151.354 118.713 140.899 108.264 128.001 108.264H128C115.102 108.264 104.647 118.713 104.647 131.601C104.647 140.532 109.668 148.294 117.049 152.217L117.807 152.62L105.503 190.221H150.498L138.194 152.62L138.952 152.217C146.333 148.294 151.354 140.532 151.354 131.601Z" fill="white"/>
</svg>
